<?xml version="1.0" encoding="utf-8"?>
<!DOCTYPE svg PUBLIC "-//W3C//DTD SVG 20010904//EN" "http://www.w3.org/TR/2001/REC-SVG-20010904/DTD/svg10.dtd">
<svg version="1.0" xmlns="http://www.w3.org/2000/svg" width="1299px" height="1029px" viewBox="0 0 1299 1029" preserveAspectRatio="xMidYMid meet">
 <g fill="#e31837">
  <path d="M0 514.5 l0 -514.5 89 0 89 0 0 514.5 0 514.5 -89 0 -89 0 0 -514.5z"/>
  <path d="M347 514.5 l0 -514.5 56.3 0 56.2 0 6.1 8.3 c35.5 47.8 62 109.7 74 173.2 11.4 59.7 9.4 133.8 -5.2 193.5 -11.7 47.7 -29.6 84.5 -60.4 123.8 l-8.1 10.4 7.2 7.1 c13.2 13.3 24.4 30.2 36.5 55.2 24 49.8 44.8 119.5 53.1 178 2.2 16 2.5 61.2 0.5 80.5 -7.5 70.4 -29.7 135.3 -64.6 188.3 l-7.1 10.7 -72.2 0 -72.3 0 0 -514.5z"/>
  <path d="M658 1026.4 c0 -1.4 1.3 -4.3 2.8 -6.3 5.7 -7.2 15.8 -22.9 24.4 -37.9 27.2 -47.5 41.3 -95.6 46.2 -158.2 3 -37.3 1.8 -59.6 -5.4 -98.5 -10.9 -59.4 -32.1 -113.7 -64.3 -165 -9.7 -15.3 -29.7 -43.8 -31.7 -45 -1.3 -0.8 -1.3 -9.2 0 -10 3.7 -2.3 22.1 -28.7 30.7 -44 25.8 -46.2 42.8 -107.3 48.4 -174 2.4 -28.1 -1.1 -70.9 -8.6 -107 -11.7 -55.7 -34.6 -110.5 -68.5 -163.6 -4.9 -7.7 -9 -14.7 -9 -15.5 0 -1.2 29.8 -1.4 202 -1.4 187.7 0 202 0.1 202 1.7 0 0.9 -2.6 4.8 -5.8 8.7 -14.8 18 -41.4 54.8 -59.4 82.2 -54 82.3 -90.8 166 -111.9 254.3 -6.9 29 -8.6 38 -12.9 68.5 -8 57.5 -9.3 90.8 -5.9 148.1 9.9 166.6 67.4 305.8 185 447.8 6.8 8.2 10.9 14 10.9 15.4 l0 2.3 -184.5 0 -184.5 0 0 -2.6z"/>
  <path d="M1187.4 1018.7 c-98.3 -102.1 -158.4 -227.2 -180.8 -376.7 -9.9 -65.9 -11.7 -144.7 -5 -217 14.7 -159.4 73.7 -295.3 179.3 -413.2 l10.5 -11.8 53.8 0 53.8 0 0 514.5 0 514.5 -50.9 0 -50.8 0 -9.9 -10.3z"/>
 </g>
 <g fill="#ffffff">
  <path d="M175 514.5 l0 -514.5 87.5 0 87.5 0 0 514.5 0 514.5 -87.5 0 -87.5 0 0 -514.5z"/>
  <path d="M491 1022.1 c7.8 -10.8 17.4 -27.2 26.4 -45.1 23.1 -46.5 37 -95 42.7 -150 2.1 -19.1 1.8 -58.6 -0.4 -74.5 -11.2 -79.6 -44.4 -174.4 -76.2 -217.6 -5.5 -7.5 -14.3 -17.1 -19.9 -21.6 l-3.8 -3.1 8.5 -10.9 c22.4 -28.6 36.4 -51.8 47.6 -79.1 27.3 -66.8 35.4 -158.4 20.7 -235.7 -12.3 -64.7 -39.9 -128.6 -75.9 -175.8 l-6.7 -8.7 86.2 0.2 86.3 0.3 8.8 13.8 c49 76.9 74.9 157.5 77.3 240.7 2.1 69.6 -17.5 153.2 -48.9 209.5 -6.5 11.6 -17.5 28.1 -24.6 36.9 -8.1 10 -7.8 9.2 -5.4 11.8 4.5 5 21.4 29.1 31 44.3 37.8 60.1 60.2 124 69.4 197.4 4.6 36.9 0.5 96 -9.6 138.7 -10.3 44.1 -30.1 86.6 -59.3 127.7 l-5.5 7.7 -86.9 0 -86.8 0 5 -6.9z"/>
  <path d="M1014.3 1015.8 c-118.5 -142.8 -176 -281.3 -186.2 -448.8 -3.6 -58.4 -2.1 -96.8 5.9 -154.6 4.3 -30.5 6 -39.5 12.9 -68.5 21.1 -88.3 57.9 -172 112 -254.4 17 -25.9 51.6 -73.6 62.3 -85.8 l3.3 -3.8 86.1 0.3 86.1 0.3 -9.5 10.5 c-69 76.3 -118.1 159.1 -148 250 -26.4 80.1 -38.4 159.2 -38.4 253 -0.1 202 64.9 373.1 191.1 503.3 l11.4 11.7 -89 0 -89 0 -11 -13.2z"/>
 </g>
</svg>